<?xml version="1.0" encoding="utf-8"?>
<!-- Generator: Adobe Illustrator 17.0.0, SVG Export Plug-In . SVG Version: 6.00 Build 0)  -->
<!DOCTYPE svg PUBLIC "-//W3C//DTD SVG 1.1//EN" "http://www.w3.org/Graphics/SVG/1.1/DTD/svg11.dtd">
<svg version="1.1" id="Capa_2" xmlns="http://www.w3.org/2000/svg" xmlns:xlink="http://www.w3.org/1999/xlink" x="0px" y="0px"
	 width="350px" height="150px" viewBox="0 0 350 150" enable-background="new 0 0 350 150" xml:space="preserve">
<g>
	<path fill="#215993" d="M70.541,108.524c-3.102,0-6.908-2.198-8.459-4.884L46.649,76.909c-1.551-2.686-1.551-7.082,0-9.768
		L62.082,40.41c1.551-2.686,5.357-4.884,8.459-4.884h30.866c3.102,0,6.908,2.198,8.459,4.884l15.433,26.731
		c1.551,2.686,1.551,7.082,0,9.768l-15.433,26.731c-1.551,2.686-5.357,4.884-8.459,4.884H70.541z"/>
</g>
<g>
	<g>
		<path fill="#FFFFFF" d="M66.552,94.093H57.47c-3.193,0-5.805,2.612-5.805,5.805v9.165h20.692v-9.165
			C72.357,96.705,69.745,94.093,66.552,94.093z"/>
		<circle fill="#FFFFFF" cx="62.011" cy="85.997" r="6.065"/>
	</g>
	<g>
		<path fill="#FFFFFF" d="M90.202,94.093H81.12c-3.193,0-5.805,2.612-5.805,5.805v9.165h20.692v-9.165
			C96.007,96.705,93.395,94.093,90.202,94.093z"/>
		<circle fill="#FFFFFF" cx="85.661" cy="85.997" r="6.065"/>
	</g>
	<g>
		<path fill="#FFFFFF" d="M113.852,94.093h-9.082c-3.193,0-5.805,2.612-5.805,5.805v9.165h20.692v-9.165
			C119.657,96.705,117.044,94.093,113.852,94.093z"/>
		<circle fill="#FFFFFF" cx="109.311" cy="85.997" r="6.065"/>
	</g>
</g>
<g>
	<path fill="#FFFFFF" d="M107.066,60.848H96.765c-3.621,0-6.584,2.963-6.584,6.584v10.396h23.47V67.432
		C113.651,63.811,110.688,60.848,107.066,60.848z"/>
	<circle fill="#FFFFFF" cx="101.915" cy="51.665" r="6.879"/>
</g>
<path fill="#FFFFFF" d="M87.951,67.163c1.169,1.028,1.283,2.809,0.255,3.978l0,0c-1.028,1.169-2.809,1.283-3.978,0.255l-9.212-8.102
	c-1.169-1.028-1.283-2.809-0.255-3.978l0,0c1.028-1.169,2.809-1.283,3.978-0.255L87.951,67.163z"/>
<path fill="#FFFFFF" d="M87.46,72.188c-1.037,0.662-2.557,0.136-3.395-1.176l0,0c-0.838-1.312-0.677-2.912,0.36-3.574l8.172-5.221
	c1.037-0.662,2.557-0.136,3.395,1.176l0,0c0.838,1.312,0.677,2.912-0.36,3.574L87.46,72.188z"/>
<rect x="43.851" y="43.676" fill="none" stroke="#FFFFFF" stroke-width="2.0227" stroke-miterlimit="10" width="39.457" height="30.505"/>
<g>
	<g>
		<path fill="#215993" d="M342.81,78.101l-80.785-14.563l-40.392-7.282l-20.196-3.641c-6.727-1.24-13.48-2.343-20.17-3.814
			c-6.679-1.478-13.306-3.408-19.501-6.376c-6.163-3.019-11.826-6.978-17.118-11.313c-2.647-2.173-5.188-4.478-7.671-6.828
			c-2.541-2.274-5.232-4.378-8.068-6.272c-5.71-3.727-11.966-6.634-18.542-8.453c-3.276-0.948-6.64-1.576-10.024-1.979
			c-3.383-0.424-6.803-0.539-10.209-0.407c-6.817,0.226-13.593,1.522-20.007,3.838c-6.413,2.312-12.472,5.614-17.867,9.785
			c-5.4,4.162-10.155,9.157-14.046,14.755l-0.202-0.357l75.215-4.957c0.093-0.006,0.178,0.04,0.227,0.112l25.395,37.979
			c0.055,0.082,0.058,0.184,0.018,0.267l-20.22,40.969c-0.041,0.084-0.123,0.134-0.21,0.14l-77.764,5.072l0.162-0.367
			c3.686,4.602,7.976,8.72,12.735,12.203c4.766,3.471,9.988,6.319,15.499,8.419c5.514,2.091,11.307,3.441,17.179,3.999
			c5.869,0.561,11.821,0.31,17.628-0.686c5.815-0.991,11.486-2.798,16.825-5.303c5.337-2.514,10.33-5.75,14.81-9.589
			c2.242-1.917,4.346-3.994,6.316-6.188c0.984-1.099,1.93-2.231,2.837-3.395c0.449-0.585,0.904-1.165,1.331-1.767
			c0.446-0.592,0.837-1.217,1.38-1.763c1.052-1.101,2.404-1.858,3.811-2.36c1.415-0.494,2.888-0.788,4.366-0.955
			c2.959-0.33,5.938-0.282,8.895-0.104l0.01,0.001l0.007,0.001c7.612,1.028,15.238,1.998,22.866,2.959l22.882,2.883l45.77,5.722
			l91.548,11.373c0.073,0.009,0.126,0.076,0.116,0.149c-0.009,0.073-0.076,0.125-0.149,0.116l-91.644-10.605l-45.819-5.338
			l-22.898-2.768c-7.628-0.924-15.261-1.857-22.937-2.857l0.144,0.016c-2.897-0.158-5.8-0.181-8.59,0.148
			c-2.759,0.328-5.501,1.118-7.092,2.82l-0.273,0.298l-0.336,0.441l-0.622,0.866c-0.434,0.621-0.897,1.22-1.355,1.823
			c-0.923,1.201-1.887,2.37-2.891,3.505c-2.009,2.268-4.158,4.416-6.451,6.402c-4.582,3.976-9.699,7.342-15.182,9.967
			c-5.483,2.617-11.322,4.518-17.315,5.58c-1.503,0.27-2.989,0.491-4.534,0.657c-0.78,0.099-1.499,0.148-2.24,0.214
			c-0.788,0.072-1.527,0.094-2.293,0.143c-3.041,0.14-6.094,0.082-9.13-0.19c-6.076-0.527-12.074-1.924-17.785-4.072
			c-5.708-2.159-11.12-5.094-16.062-8.676c-4.934-3.594-9.387-7.847-13.216-12.605c-0.744-0.925-0.598-2.278,0.327-3.022
			c0.357-0.287,0.778-0.442,1.203-0.47l0.012-0.001l77.752-5.259l-1.924,1.286l20.121-41.017l0.158,2.403L111.314,31.78l2.08,1.026
			L38.167,37.58l-0.01,0.001c-1.191,0.076-2.217-0.828-2.292-2.019c-0.032-0.508,0.115-0.987,0.385-1.374
			c4.045-5.79,8.98-10.951,14.582-15.247c5.596-4.305,11.877-7.709,18.52-10.086c6.625-2.388,13.688-3.705,20.702-3.88
			c3.518-0.114,7.049,0.029,10.539,0.488c3.491,0.438,6.957,1.11,10.331,2.109c6.77,1.921,13.196,4.958,19.046,8.832
			c1.435,1.01,2.879,1.995,4.264,3.122l1.048,0.821l0.976,0.837l0.971,0.838l0.486,0.419l0.528,0.484
			c2.479,2.37,4.95,4.632,7.553,6.793c2.596,2.153,5.279,4.199,8.061,6.086c1.39,0.945,2.813,1.845,4.23,2.687
			c0.699,0.432,1.48,0.838,2.216,1.258c0.7,0.397,1.471,0.761,2.203,1.144c6.004,2.914,12.503,4.852,19.108,6.347
			c6.609,1.489,13.37,2.63,20.089,3.904l20.171,3.779l40.328,7.639l80.655,15.278c0.073,0.013,0.121,0.083,0.108,0.156
			C342.952,78.066,342.882,78.114,342.81,78.101z"/>
	</g>
	<g>
		<path fill="#215993" d="M320.643,119.488c0,0-1.365-0.161-3.924-0.462c-2.557-0.313-6.317-0.715-11.084-1.34
			c-4.77-0.607-10.562-1.343-17.206-2.188c-3.322-0.423-6.857-0.872-10.584-1.346c-3.721-0.507-7.634-1.041-11.717-1.598
			c-8.164-1.127-17.008-2.347-26.362-3.638c-9.354-1.291-19.224-2.619-29.404-4.187c-10.187-1.522-20.714-3.095-31.41-4.693
			c-1.337-0.2-2.677-0.4-4.019-0.6l-2.015-0.301l-0.504-0.075l-0.582-0.099l-1.004-0.181c-1.611-0.367-3.117-0.837-4.55-1.529
			c-1.437-0.702-2.82-1.584-4.063-2.707c-1.244-1.114-2.326-2.516-3.081-4.147c-0.756-1.626-1.132-3.518-0.977-5.371
			c0.011-0.468,0.105-0.918,0.198-1.37l0.142-0.664l0.134-0.497l0.536-1.988l1.079-3.976l1.117-3.966l0.279-0.991l0.095-0.298
			l0.043-0.121l0.086-0.243l0.172-0.485c0.034-0.129,0.183-0.422,0.28-0.631l0.336-0.678c0.229-0.478,0.478-0.768,0.723-1.157
			c2.045-2.878,4.943-4.665,7.901-5.726c2.979-1.073,6.119-1.411,9.195-1.182l1.15,0.13l0.287,0.034l0.289,0.041l0.503,0.081
			l2.011,0.323c1.34,0.215,2.677,0.43,4.012,0.645c10.678,1.716,21.187,3.404,31.357,5.039c10.177,1.587,19.983,3.324,29.291,4.919
			c9.306,1.602,18.105,3.116,26.227,4.513c8.127,1.366,15.558,2.736,22.145,3.948c6.588,1.206,12.332,2.257,17.061,3.122
			c4.733,0.848,8.437,1.602,10.969,2.078c2.53,0.487,3.88,0.747,3.88,0.747l-0.048,0.31c0,0-21.717-3.348-54.292-8.369
			c-16.288-2.511-35.29-5.44-55.649-8.578c-10.18-1.569-20.699-3.191-31.388-4.838c-1.336-0.206-2.675-0.412-4.016-0.619
			c-1.342-0.201-2.687-0.44-4.016-0.556c-2.673-0.183-5.405,0.131-7.932,1.06c-2.517,0.909-4.875,2.444-6.405,4.636
			c-0.392,0.549-0.682,1.119-0.948,1.727l-0.329,0.954l-0.273,0.993l-1.091,3.972l-1.097,3.971
			c-0.341,1.325-0.816,2.649-0.935,3.943c-0.247,2.653,1.066,5.26,3.039,7.035c1.973,1.808,4.511,2.95,7.1,3.535
			c2.659,0.497,5.363,0.859,8.028,1.293c10.686,1.667,21.202,3.307,31.379,4.894c20.354,3.175,39.351,6.138,55.634,8.678
			c32.566,5.08,54.277,8.466,54.277,8.466L320.643,119.488z"/>
	</g>
</g>
</svg>
