<?xml version="1.0" encoding="utf-8"?>
<!-- Generator: Adobe Illustrator 19.2.1, SVG Export Plug-In . SVG Version: 6.00 Build 0)  -->
<svg version="1.1" id="Capa_1" xmlns="http://www.w3.org/2000/svg" xmlns:xlink="http://www.w3.org/1999/xlink" x="0px" y="0px"
	 viewBox="0 0 768 227" enable-background="new 0 0 768 227" xml:space="preserve">
<path fill="#F2CF3D" d="M719.969,87.908L719.969,87.908L719.969,87.908z M719.811,81.462L719.811,81.462L719.811,81.462z
	 M722.135,80.161l-0.001,0.001L722.135,80.161z M739.592,74.421l-0.043,0.487l-0.443-2.364l-4.648,0.826l1.992-1.396l-0.387-0.836
	l-5.132,3.078L730.53,73.3l6.791,1.441l-14.643,7.219l-0.101-1.464l-2.05,0.958l-0.706,0.025l-6.474,4.531l-0.012,0.235
	l-9.552,3.939l-0.046,0.406l-1.376-0.037l0.098,0.458l-3.96,0.174l2.861-1.792l0.89,0.631l14.444-9.451l6.861-0.967l-0.348-0.264
	l0.478-0.216l-0.054,0.501l-0.076-0.021l6.273-3.953l0.433,0.332l-0.831-1.172l-0.029,0.261l-8.88,2.006l3.797-2.66v0.518
	l0.578,0.161l2.071-1.697l1.521-1.987l1.553-2.664l0.001,0.128l-0.479-0.569l0.444,0.191l1.359-0.445l-4.257,1.493l-4.397,1.464
	l0.07,0.452l1.51-0.024l-2.461,1.835l-0.152-0.193l-0.208,0.053l-2.466,1.937l-0.451-0.319l-0.758,1.413l-0.12-0.085l0.074,0.209
	l-0.961-0.35l-13.977,8.617l0.006,0.027l-3.632,0.42l-3.285,1.302l-0.598,1.394l-0.442-0.187l-3.735,1.862l-0.412-0.814l0.897,2.987
	l3.692-1.88l-2.347,2.545l-1.329,0.034l1.383,1.918l-3.227,2.174l-0.76-1.219l-9.876,4.105l-2.421,0.772l-0.353,5.409l-2.881-4.839
	v0.001l-4.271-6.709l-3.33,1.62l1.061-2.552l-0.126,0.067l-0.051-0.147l1.423-0.751l-0.094,0.219l0.56,0.772l-2.348-7.318
	l1.432-4.731l-8.34,0.69l6.02-6.263l-11.598,3.571l8.591-7.046l-0.581-0.913l0.176,0.02l-0.683-0.997l-0.686-0.701l-10.912,6.008
	l10.954-7.258l-0.507-0.747l0.146-0.047l-1.372-2.024l-0.079,0.146l-0.526-0.775l-11.482,13.071l6.57-1.132l-2.48,5.58l9.219-3.586
	l-6.489,6.649l0.335-0.136l-0.637,0.547l1.633-0.051l-1.824,3.551l1.703-0.352l0.151-1.66l5.967-3.447l-1.638,1.404l0.894-0.027
	l-2.097,2.509l8.46-4.962l-12.221,9.086l2.456,5.567l1.25-1.396l-0.085-0.035l5.515-4.786l-1.848,3.287l0.277-0.308l-5.959,5.347
	l5.501,21.976l11.271-4.42l-12.733,7.922l5.752-0.19l-4.391,4.043l10.256,4.417l-0.192,0.169l0.755,0.862l1.697-2.959l0.013,0.001
	l-1.751-3.744l7.969-3.112l-0.554-0.887l0.126-0.055l-1.486-2.376l-0.08,0.132l0.242,0.686l-5.774,2.302l15.44-8.848l-0.849-1.807
	l2.382-3.943l10.43-6.531l-1.34-1.338l1.961-1.965l-2.462,0.26l-0.301-0.792l0.384,0.343l3.586-0.509l1.793-0.481l3.685-1.967
	l0.022-0.492l1.32,0.276l-0.708,0.688l7.997-4.755l0.604-0.654l1.341-1.154l0.274-0.104l1.18-1.514l0.447,0.466l-0.673-2.184
	l-0.029,0.323l-2.756,1.395l-0.74-0.656l-5.659,1.986l12.003-5.155l7.316-2.305l5.048-4.742l5.618-2.763L739.592,74.421z
	 M697.776,92.163l0.228-0.449L697.776,92.163z M731.213,78.651L731.213,78.651L731.213,78.651z M730.51,79.047L730.51,79.047
	L730.51,79.047z M730.711,78.934l-0.124,0.07L730.711,78.934z M691.681,91.618l-0.07-0.069L691.681,91.618z M654.683,63.423
	l-3.455-1.168l-3.362,6.31l6.745-3.703l-0.111-0.134L654.683,63.423z M654.896,88.815l0.003,0.029L654.896,88.815z M654.078,70.513
	l-0.05,0.122L654.078,70.513z"/>
<path fill="#FFFFFF" d="M711.067,115.674l6.793-3.247l-1.74-0.319L711.067,115.674z M709.492,116.707L709.492,116.707
	L709.492,116.707z M668.718,48.42l0.179,0.089l-2.348,0.58l0.315-0.548l0.021-0.915l-2.348,0.857l0.547-1.502l-3.064,1.339
	l-0.044,0.842l-4.05,0.963l-0.4,0.695l-2.782,1.763l1.536,1.967l-0.757-0.252l0.751,0.96l0.537-0.029l0.937,1.199l0.524-1.359
	l0.998,1.907l0.064-0.111l0.923,1.761l0.031-0.024l0.02,0.004l0.45,0.859l0.004-0.009l0.065,0.123l0.969-0.568l0.639-1.471
	l1.835-1.173l0.115,0.184l-0.212,0.385l1.48,2.358l0.143-0.497l1.698,2.706l0.023-0.09l2.157-2.161l0.201-0.777l3.319-1.899
	l0.994-2.422l0.778,0.085l3.912-2.768l0.872-1.5l4.851-0.832l-0.045,0.578l-0.85,1.534l-0.059,0.8l-2.455,1.767l-0.043,0.579
	l-0.027-0.011l-2.543,3.282l0.039-0.474l-5.453,1.727l-0.243,0.485l0.988,1.298l0.576,0.757l1.334,1.753l3.184-3.683l0.94,0.746
	l0.067-0.868l2.818-1.783l0.4-0.696l5.631-2.04l-0.727-0.289l0.895-1.557l3.211,0.622l0.619-1.664l1.985,1.803l0.377-1.167
	l-4.515-1.475l-0.824,0.385l0.25-0.426l-0.725-0.288l-2.327,2.495l-1.125,0.409l-0.563-0.223l0.537-0.83l0.315-4.766l-5.831,0.601
	l0.615-2.886l-3.676-2.26l-3.256,0.342l-5.305,3.025l-0.399,0.696L668.718,48.42z M695.22,52.638L695.22,52.638L695.22,52.638z
	 M668.718,48.42L668.718,48.42L668.718,48.42z M678.619,57.187L678.619,57.187L678.619,57.187z M701.411,56.804L701.411,56.804
	L701.411,56.804z M692.435,57.861l1.419-1.281l0.087-1.833l-1.899,0.286l-2.074,3.488l0.01,0.025l-1.977,3.224l-0.146,0.051
	l-0.438-0.045l-1.346,0.777l1.063,3.631l1.785-2.891l5.368-1.993l0.279-0.486l4.931-1.723l0.422,0.168l1.492-2.455l-1.792-0.38
	l-1.856,2.021l-5.498,1.238L692.435,57.861z M714.105,66.12L714.105,66.12L714.105,66.12z M714.183,66.389l0.125,0.429
	L714.183,66.389z M714.183,66.389l-0.04-0.14L714.183,66.389z M714.143,66.249l-0.038-0.129L714.143,66.249z M700.992,61.902
	l-0.764,0.166l-5.074,9.267l3.282,1.301l14.877-4.874l0.995-0.944l-3.718-5.514l-0.511-0.169l-0.053,0.105l-0.521,0.061
	l-0.364-0.497l-0.04,0.606l-8.457,5.686l-0.048-0.006l-0.008,0.008l-0.14-1.828l4.961-6.759l0.765-0.165l-0.197-2.859l-2.653-0.602
	L700.992,61.902z M651.469,154.779L651.469,154.779L651.469,154.779z M723.524,118.288l-0.381-3.602l0.105,0.076l-1.449-1.628
	l-0.016-0.002l-6.473,2.622l0.875,0.131l-0.419,0.763l-1.936,0.682l-1.192-0.189l-1.338,0.695l-0.871,1.554l-2.829,0.863
	l-0.948-1.311l3.057-2.62l-0.414-0.159l-8.605,4.733l0.507,1.981l-1.453,0.438l0.599,1.293l-0.008,0.008l1.105,2.386l-2.506,2.951
	l-2.955,0.574l0.677,2.913l0.912,0.456l0.239-0.982l1.883-0.719l0.927,0.632l-0.096,1.188l1.247-1.339l-0.023,1.296l-0.966,1.017
	l-0.08,3.013l5.091-3.875l0.714-1.748l4.963-3.411l0.009-0.02l3.724-1.388l0.015,0.026l-7.033,8.503l-13.373,4.626l-2.533,0.721
	l1.408,2.275l-0.002-0.004l-0.002,0.003l-1.454-0.301l0.828,1.733l0.155,0.412l-1.488,0.469l1.598,4.78l-6.921,3.605l-0.211-0.526
	l-13.048,0.092l-0.002-0.003l-6.662,4.687l5.78-8.151l0.068-0.39l-0.756-2.068l-7.589-2.06l-1.864,3.089l3.874-0.74l-5.55,2.445
	l-1.612-0.717l0.045-0.192l-4.804,0.965l3.905-5.306l-1.562-2.77l-3.077,0.245l0.398-0.439l-4.479,1.533l0.012,0.016l-0.321,0.479
	l-0.615,0.384l1.067-3.834l-20.857,2.692l-0.769-0.257l1.786-1.514l-0.417,0.084l3.5-6.43l-4.254-3.676l-6.539,3.856l2.315-2.589
	l-0.006-0.004l0.253-0.755l-1.68-2.819l-5.407,1.553l0.151-0.189l-0.091-4.046l2.75-2.921l-0.711-4.874l4.556-4.055l0.747-3.636
	l-1.211-4.837l6.448-5.677l-4.007-6.996l0.655-0.467l-7.277,1.66l11.46-6.98l-4.201,3.037l0.04,1.121l-0.028,0.02l0.038,0.066
	l5.791-2.381l0.768-0.802l-1.612-4.625l5.619-4.545l-1.949-6.571l2.143-6.279l-3.786,0.717l-1.202-0.638l-0.092-1.437l0.851-2.232
	l8.455-3.421l0.011,0.416l-1.742,1.888l2-0.942l0.528-3.021l-6.547,0.459l29.19-15.563l-0.303-0.626l1.329-0.991l0.091,0.954
	l-1.675,2.014l-0.077,1.604l0.777-0.076l2.636-4.343l-3.126-1.661l-0.42-0.019l-4.373,2.122l-0.086,0.036l-5.288,2.531l3.794-2.852
	l1.687-0.341l0.003-0.783l0.391-0.271l-0.328-0.851l-0.461,0.244l-0.313-0.676l-0.004,0.001l0.311,0.679l-0.772-1.671
	l-28.324,14.228l21.235-13.858l-0.562-0.948l0.124-0.017l-1.194-2.012l-0.098,0.061l-0.539-0.908l-20.417,11.712l6.304-9.656
	l5.123-1.846l-2.429-3.021L627.014,48.37l4.051,0.691l-5.492,7.91l0.263,0.096l20.075-8.773l-23.846,16.194l0.118,0.213
	l-0.287,0.233l0.261,1.381l-1.551,1.028l0.721,1.386l-0.082,0.019l0.079,0.153l0.083-0.017l0.7,1.347l5.809-3.87l-4.362,6.248
	l-6.541,3.466l1.054,1.733l-0.216,0.122l-0.008,0.024l0.295-0.029l0.991,1.63l5.222-4.96l1.791,1.016l3.756-3.565l5.731-1.609
	l-22.377,13.151l0.927,1.539l-0.172,0.12l1.512,2.512l0.146-0.165l0.968,1.609l11.952-9.884l5.492-1.482l-15.121,11.347l4.432-0.941
	l-14.603,5.397l0.795,1.723l-0.009,0.006l1.974,4.205l0.01-0.007l0.366,0.78h0.001l0.032,0.069l0.01-0.009l0.107,0.23l-6.506,4.333
	l0.478,0.772l-0.097,0.067l2.026,3.265l0.08-0.095l0.502,0.809l15.689-11.93l3.171,1.679l-25.854,15.484l0.312,3.756l-1.817,0.29
	l2.711,5.195l-6.398,2.527l1.428,3.525l-0.195,0.133l0.712,1.166l-2.055,0.381l1.225,2.063l-0.264,0.053l2.842,4.785l0.234-0.104
	l1.165,1.96l0.645-0.45l1.645,2.186l1.268,0.096l0.403,0.575l2.279-1.705l13.841-8.822l-6.794,4.651l0.069-0.058l-6.37,4.056
	l4.077,4.736l16.148-9.651l-6.168,7.019l-2.666,0.636l-0.86,0.787l3.389,4.396l7.004,2.985l0.108,0.192l15.192-9.555l0.624,0.372
	l-0.226,1.657l-9.198,7.055l2.036,2.788l13.986-9.965l2.126,0.277l2.136-0.595l0.091,0.481l-4.493,4.754l-0.212,2.172l0.004,0.007
	l1.564-1.608l-1.189,2.028l-7.272,3.757l2.731,2.515l0.45-3.082l6.051-1.908l0.136,0.331l-4.889,3.209l0.415,0.759l-0.054,0.036
	l0.613,1.121l0.049-0.045l0.425,0.778l0.385-0.34l0.001,0.002l0.014-0.008l0.428,0.901l16.586-7.335l-4.84,7.288l-0.432,3.552
	l0.379,0.094l0.009,0.01l0.004-0.012l0.671-0.595l0.005,0.001l0.063-0.983l5.478-3.273l0.83-0.052l0.829,1.558l8.139-2.319
	l0.87,0.536l0.209,0.356l1.817-0.023l-0.842,1.954l-10.665,3.664l0.868,1.097l-0.202,0.173l-0.08,0.018l0.024,0.03l0.249,1.109
	l0.9-0.203l1.558,2.234l2.082,1.095l12.838-1.541l-2.046,6.767l4.59,3.203l8.531-1.42l0.176-2.664l-6.764,2.926l-1.808-0.603
	l10.798-5.04l-0.27-0.446l0.061-0.013l-0.344-0.568l1.316-0.906l-0.414-0.787l0.044-0.028l-2.113-4.017l-0.04,0.035l-0.422-0.803
	l1.172-0.2l4.569-3.34l-0.594-0.917l0.164-0.028l-1.37-2.116l3.23-1.522l-0.373-0.717l0.726-2.51l3.68-0.347l-2.439-8.556
	l1.338-0.554l0.809-1.712l0.356-0.932l2.418-1.05l1.185-0.231l3.156-10.1l0.937-0.637l1.126-3.315l-0.808-2.743l1.901-2.44
	l-0.885-0.022l-0.528-0.897l0.357-0.874l-1.768-0.044l-0.289,0.707l-0.432-0.11l-0.542,0.773l0.234,1.133l-1.168,0.931l-1.333-0.27
	l0.867-1.238l-2.262-0.581l3.503-2.017l0.435,0.117l1.407-0.535l0.695-0.963l1.597,0.291l-0.059,1.827l1.366-0.854l0.062,0.08
	l-0.899,1.671L723.524,118.288z M723.248,114.762l0.007,0.005L723.248,114.762z M723.255,114.767L723.255,114.767L723.255,114.767z
	 M621.541,132.631l-1.099,0.346L621.541,132.631z"/>
<path fill="#FFFFFF" d="M159.131,205.804c-4.572,0-7.875-0.892-9.818-2.649c-1.974-1.785-2.933-4.023-2.933-6.843
	c0-2.882,0.975-5.15,2.98-6.936c1.971-1.758,5.259-2.65,9.771-2.65h3.258v-86.191h-3.258c-4.569,0-7.873-0.891-9.818-2.649
	c-1.975-1.787-2.934-4.056-2.934-6.937c0-2.817,0.959-5.055,2.932-6.841c1.945-1.76,5.249-2.652,9.819-2.652h19.504
	c1.565,0,2.834,1.269,2.834,2.834v5.867l0.001,0c7.208-4.925,15.639-7.528,24.382-7.528c23.87,0,43.289,19.42,43.289,43.29
	c0,23.869-19.419,43.288-43.289,43.288c-8.743,0-17.174-2.604-24.382-7.527l0,25.047h4.333c4.572,0,7.876,0.892,9.819,2.65
	c1.972,1.784,2.931,4.053,2.931,6.936c0,2.82-0.958,5.058-2.931,6.842c-1.945,1.759-5.248,2.65-9.819,2.65H159.131z
	 M205.852,101.843c-13.275,0-24.076,10.8-24.076,24.076c0,13.274,10.8,24.074,24.076,24.074s24.076-10.8,24.076-24.074
	C229.928,112.643,219.127,101.843,205.852,101.843z M306.048,169.047c-4.036,0-8.032-0.717-11.878-2.129
	c-21.507-7.892-21.833-32.7-21.799-35.503l0.027-2.332c-0.03-0.162-0.046-0.33-0.046-0.501v-28.048h-6.887
	c-4.569,0-7.873-0.891-9.818-2.649c-1.975-1.787-2.934-4.056-2.934-6.937c0-2.817,0.959-5.055,2.932-6.841
	c1.945-1.76,5.249-2.652,9.819-2.652h6.887V64.236c0-4.567,0.892-7.871,2.652-9.818c1.789-1.975,4.057-2.933,6.936-2.933
	c2.815,0,5.052,0.959,6.839,2.933c1.761,1.947,2.652,5.25,2.652,9.82v17.218h24.602c4.57,0,7.874,0.892,9.819,2.651
	c1.974,1.787,2.933,4.055,2.933,6.935c0,2.817-0.959,5.055-2.932,6.841c-1.945,1.76-5.249,2.651-9.82,2.651h-24.602v28.77
	c0,0.248-0.032,0.488-0.091,0.718l0.081,2.127c0.134,3.205,1.204,13.929,9.307,16.904c1.759,0.645,3.594,0.972,5.452,0.972
	c6.72,0,11.887-4.151,13.315-5.429l0.003-0.004c1.161-1.53,2.746-2.662,4.58-3.27c0.973-0.326,1.988-0.493,3.009-0.493
	c4.1,0,7.725,2.622,9.02,6.524c0.878,2.645,1.039,6.654-3.175,10.738C327.721,163.146,317.552,169.047,306.048,169.047z
	 M533.461,168.577c-18.688,0-33.959-10.973-35.521-25.522c-1.731-16.144,13.721-31.087,34.445-33.312
	c1.732-0.186,3.484-0.28,5.208-0.28c6.96,0,13.695,1.539,19.477,4.45l0.001-6.21c0-2.839-1.237-5.188-3.678-6.981
	c-2.44-1.791-7.153-2.7-14.006-2.7c-5.611,0-13.002,1.127-21.965,3.35c-3.385,0.817-5.937,1.212-7.818,1.212
	c-2.566,0-4.682-0.898-6.47-2.747c-1.761-1.82-2.654-4.185-2.654-7.027c0-1.603,0.313-3.011,0.931-4.186
	c0.619-1.175,1.495-2.13,2.604-2.839c1.119-0.717,3.403-1.555,6.98-2.562c4.694-1.297,9.544-2.345,14.429-3.117
	c4.863-0.772,9.343-1.164,13.311-1.164c11.797,0,21.082,2.583,27.599,7.678c6.607,5.169,9.819,12.034,9.819,20.986v39.28h3.256
	c4.573,0,7.877,0.893,9.819,2.651c1.973,1.784,2.933,4.053,2.933,6.936c0,2.819-0.96,5.057-2.933,6.841
	c-1.942,1.759-5.246,2.651-9.819,2.651h-19.503c-1.565,0-2.835-1.27-2.835-2.835v-0.82c-5.454,3.208-11.816,5.277-18.4,5.984
	C536.938,168.482,535.186,168.577,533.461,168.577z M537.479,127.05c-1.062,0-2.144,0.058-3.217,0.173
	c-5.885,0.632-11.299,2.966-14.853,6.403c-1.468,1.417-3.876,4.275-3.53,7.503c0.574,5.345,8.679,9.86,17.696,9.86
	c1.062,0,2.144-0.058,3.218-0.173c5.885-0.632,11.299-2.966,14.853-6.402c1.466-1.418,3.875-4.28,3.53-7.504
	C554.602,131.566,546.497,127.05,537.479,127.05z M409.288,165.968c-2.369,0-4.297-1.928-4.297-4.297v-9.822
	c0-1.1,0.415-2.146,1.167-2.943l45.535-48.371h-29.225v1.862c0,4.511-0.892,7.783-2.65,9.726c-1.783,1.973-4.053,2.934-6.937,2.934
	c-2.882,0-5.149-0.959-6.935-2.933c-1.759-1.943-2.651-5.216-2.651-9.727l0.074-16.664c0.009-2.358,1.937-4.278,4.297-4.278h70.352
	c2.369,0,4.297,1.927,4.297,4.296v9.635c0,1.093-0.412,2.136-1.16,2.938l-45.726,48.563h29.947c0.187-3.523,1.174-6.202,2.934-7.96
	c1.78-1.783,3.927-2.651,6.56-2.651c2.881,0,5.149,0.959,6.934,2.933c1.763,1.946,2.656,5.25,2.656,9.819v12.643
	c0,2.369-1.928,4.297-4.297,4.297H409.288z M375.186,165.968c-5.268,0-9.554-4.286-9.554-9.554v-55.88h-8.214
	c-4.511,0-7.799-0.892-9.772-2.651c-2.004-1.784-2.979-4.053-2.979-6.936c0-2.816,0.959-5.054,2.932-6.841
	c1.945-1.76,5.249-2.651,9.82-2.651h24.487c1.565,0,2.834,1.269,2.834,2.834v72.125
	C384.739,161.682,380.454,165.968,375.186,165.968z M112.084,165.968c-4.571,0-7.875-0.892-9.818-2.65
	c-1.974-1.788-2.933-4.057-2.933-6.936c0-2.816,0.959-5.055,2.932-6.841c1.945-1.761,5.249-2.652,9.82-2.652h4.655l-4.563-11.636
	H65.825l-4.654,11.636h4.654c4.571,0,7.875,0.892,9.818,2.65c1.974,1.787,2.933,4.056,2.933,6.937c0,2.817-0.959,5.055-2.932,6.841
	c-1.945,1.76-5.249,2.651-9.819,2.651H40.136c-4.572,0-7.875-0.893-9.819-2.651c-1.972-1.785-2.931-4.054-2.931-6.935
	c0-2.84,1.033-5.188,3.07-6.98c1.906-1.676,5.016-2.525,9.243-2.525c0.296,0,0.596,0.005,0.902,0.013l29.97-74.647h-8.914
	c-4.571,0-7.875-0.892-9.819-2.651c-1.972-1.784-2.931-4.053-2.931-6.935c0-2.883,0.958-5.152,2.931-6.936
	c1.943-1.759,5.247-2.651,9.818-2.651l35.769,0.089c1.152,0.003,2.188,0.703,2.62,1.77l37.261,91.96
	c4.446,0,7.421,0.501,8.843,1.488c2.853,2.045,4.281,4.762,4.281,8.099c0,2.816-0.944,5.055-2.887,6.841
	c-1.913,1.76-5.201,2.651-9.773,2.651L112.084,165.968z M104.264,116.173L88.909,78.385l-15.452,37.789H104.264z M367.537,70.449
	c-1.565,0-2.834-1.269-2.834-2.834V53.085c0-1.565,1.269-2.834,2.834-2.834h11.761c1.565,0,2.834,1.269,2.834,2.834v14.529
	c0,1.565-1.269,2.834-2.834,2.834H367.537z"/>
</svg>
