<?xml version="1.0" encoding="utf-8"?>
<!-- Generator: Adobe Illustrator 19.2.1, SVG Export Plug-In . SVG Version: 6.00 Build 0)  -->
<svg version="1.1" id="Capa_1" xmlns="http://www.w3.org/2000/svg" xmlns:xlink="http://www.w3.org/1999/xlink" x="0px" y="0px"
	 viewBox="0 0 768 227" style="enable-background:new 0 0 768 227;" xml:space="preserve">
<style type="text/css">
	.st0{fill:#F2CF3D;}
	.st1{fill:#215891;}
</style>
<path class="st0" d="M720,87.9L720,87.9L720,87.9z M719.8,81.5L719.8,81.5L719.8,81.5z M722.1,80.2L722.1,80.2L722.1,80.2z
	 M739.6,74.4l0,0.5l-0.4-2.4l-4.6,0.8l2-1.4l-0.4-0.8l-5.1,3.1l-0.4-0.9l6.8,1.4L722.7,82l-0.1-1.5l-2,1l-0.7,0l-6.5,4.5l0,0.2
	l-9.6,3.9l0,0.4l-1.4,0l0.1,0.5l-4,0.2l2.9-1.8l0.9,0.6l14.4-9.5l6.9-1l-0.3-0.3l0.5-0.2l-0.1,0.5l-0.1,0l6.3-4l0.4,0.3l-0.8-1.2
	l0,0.3l-8.9,2l3.8-2.7v0.5l0.6,0.2l2.1-1.7l1.5-2l1.6-2.7l0,0.1l-0.5-0.6l0.4,0.2l1.4-0.4l-4.3,1.5l-4.4,1.5l0.1,0.5l1.5,0l-2.5,1.8
	l-0.2-0.2l-0.2,0.1l-2.5,1.9l-0.5-0.3l-0.8,1.4l-0.1-0.1l0.1,0.2l-1-0.3l-14,8.6l0,0l-3.6,0.4l-3.3,1.3l-0.6,1.4l-0.4-0.2l-3.7,1.9
	l-0.4-0.8l0.9,3l3.7-1.9l-2.3,2.5l-1.3,0l1.4,1.9l-3.2,2.2l-0.8-1.2l-9.9,4.1l-2.4,0.8l-0.4,5.4l-2.9-4.8v0l-4.3-6.7l-3.3,1.6
	l1.1-2.6l-0.1,0.1l-0.1-0.1l1.4-0.8l-0.1,0.2l0.6,0.8l-2.3-7.3l1.4-4.7l-8.3,0.7l6-6.3L653.8,79l8.6-7l-0.6-0.9l0.2,0l-0.7-1
	l-0.7-0.7l-10.9,6l11-7.3l-0.5-0.7l0.1,0l-1.4-2l-0.1,0.1l-0.5-0.8l-11.5,13.1l6.6-1.1l-2.5,5.6l9.2-3.6l-6.5,6.6l0.3-0.1l-0.6,0.5
	l1.6-0.1l-1.8,3.6l1.7-0.4l0.2-1.7l6-3.4l-1.6,1.4l0.9,0l-2.1,2.5l8.5-5l-12.2,9.1l2.5,5.6l1.3-1.4l-0.1,0l5.5-4.8l-1.8,3.3l0.3-0.3
	l-6,5.3l5.5,22l11.3-4.4l-12.7,7.9l5.8-0.2l-4.4,4l10.3,4.4l-0.2,0.2l0.8,0.9l1.7-3l0,0l-1.8-3.7l8-3.1l-0.6-0.9l0.1-0.1l-1.5-2.4
	l-0.1,0.1l0.2,0.7l-5.8,2.3l15.4-8.8l-0.8-1.8l2.4-3.9l10.4-6.5l-1.3-1.3l2-2l-2.5,0.3l-0.3-0.8l0.4,0.3l3.6-0.5l1.8-0.5l3.7-2
	l0-0.5l1.3,0.3l-0.7,0.7l8-4.8l0.6-0.7l1.3-1.2l0.3-0.1l1.2-1.5l0.4,0.5l-0.7-2.2l0,0.3l-2.8,1.4l-0.7-0.7l-5.7,2l12-5.2l7.3-2.3
	l5-4.7l5.6-2.8L739.6,74.4z M697.8,92.2l0.2-0.4L697.8,92.2z M731.2,78.7L731.2,78.7L731.2,78.7z M730.5,79L730.5,79L730.5,79z
	 M730.7,78.9l-0.1,0.1L730.7,78.9z M691.7,91.6L691.7,91.6L691.7,91.6z M654.7,63.4l-3.5-1.2l-3.4,6.3l6.7-3.7l-0.1-0.1L654.7,63.4z
	 M654.9,88.8L654.9,88.8L654.9,88.8z M654.1,70.5l0,0.1L654.1,70.5z"/>
<path class="st1" d="M711.1,115.7l6.8-3.2l-1.7-0.3L711.1,115.7z M709.5,116.7L709.5,116.7L709.5,116.7z M668.7,48.4l0.2,0.1
	l-2.3,0.6l0.3-0.5l0-0.9l-2.3,0.9l0.5-1.5l-3.1,1.3l0,0.8l-4,1l-0.4,0.7l-2.8,1.8l1.5,2l-0.8-0.3l0.8,1l0.5,0l0.9,1.2l0.5-1.4l1,1.9
	l0.1-0.1l0.9,1.8l0,0l0,0l0.5,0.9l0,0l0.1,0.1l1-0.6l0.6-1.5l1.8-1.2l0.1,0.2l-0.2,0.4l1.5,2.4l0.1-0.5l1.7,2.7l0-0.1l2.2-2.2
	l0.2-0.8l3.3-1.9l1-2.4l0.8,0.1l3.9-2.8l0.9-1.5l4.9-0.8l0,0.6l-0.8,1.5l-0.1,0.8l-2.5,1.8l0,0.6l0,0l-2.5,3.3l0-0.5l-5.5,1.7
	l-0.2,0.5l1,1.3l0.6,0.8l1.3,1.8l3.2-3.7l0.9,0.7l0.1-0.9l2.8-1.8l0.4-0.7l5.6-2l-0.7-0.3L689,53l3.2,0.6l0.6-1.7l2,1.8l0.4-1.2
	l-4.5-1.5l-0.8,0.4l0.3-0.4l-0.7-0.3l-2.3,2.5l-1.1,0.4l-0.6-0.2l0.5-0.8l0.3-4.8l-5.8,0.6l0.6-2.9l-3.7-2.3l-3.3,0.3l-5.3,3
	l-0.4,0.7L668.7,48.4z M695.2,52.6L695.2,52.6L695.2,52.6z M668.7,48.4L668.7,48.4L668.7,48.4z M678.6,57.2L678.6,57.2L678.6,57.2z
	 M701.4,56.8L701.4,56.8L701.4,56.8z M692.4,57.9l1.4-1.3l0.1-1.8L692,55l-2.1,3.5l0,0l-2,3.2l-0.1,0.1l-0.4,0l-1.3,0.8l1.1,3.6
	l1.8-2.9l5.4-2l0.3-0.5l4.9-1.7l0.4,0.2l1.5-2.5l-1.8-0.4l-1.9,2l-5.5,1.2L692.4,57.9z M714.1,66.1L714.1,66.1L714.1,66.1z
	 M714.2,66.4l0.1,0.4L714.2,66.4z M714.2,66.4l0-0.1L714.2,66.4z M714.1,66.2l0-0.1L714.1,66.2z M701,61.9l-0.8,0.2l-5.1,9.3
	l3.3,1.3l14.9-4.9l1-0.9l-3.7-5.5l-0.5-0.2l-0.1,0.1l-0.5,0.1l-0.4-0.5l0,0.6l-8.5,5.7l0,0l0,0l-0.1-1.8l5-6.8l0.8-0.2l-0.2-2.9
	l-2.7-0.6L701,61.9z M651.5,154.8L651.5,154.8L651.5,154.8z M723.5,118.3l-0.4-3.6l0.1,0.1l-1.4-1.6l0,0l-6.5,2.6l0.9,0.1l-0.4,0.8
	l-1.9,0.7l-1.2-0.2l-1.3,0.7l-0.9,1.6l-2.8,0.9l-0.9-1.3l3.1-2.6l-0.4-0.2l-8.6,4.7l0.5,2l-1.5,0.4l0.6,1.3l0,0l1.1,2.4l-2.5,3
	l-3,0.6l0.7,2.9l0.9,0.5l0.2-1l1.9-0.7l0.9,0.6l-0.1,1.2l1.2-1.3l0,1.3l-1,1l-0.1,3l5.1-3.9l0.7-1.7l5-3.4l0,0l3.7-1.4l0,0l-7,8.5
	l-13.4,4.6l-2.5,0.7l1.4,2.3l0,0l0,0l-1.5-0.3l0.8,1.7l0.2,0.4l-1.5,0.5l1.6,4.8l-6.9,3.6l-0.2-0.5l-13,0.1l0,0l-6.7,4.7l5.8-8.2
	l0.1-0.4l-0.8-2.1L664,146l-1.9,3.1l3.9-0.7l-5.5,2.4l-1.6-0.7l0-0.2l-4.8,1l3.9-5.3l-1.6-2.8l-3.1,0.2l0.4-0.4l-4.5,1.5l0,0
	l-0.3,0.5l-0.6,0.4l1.1-3.8l-20.9,2.7l-0.8-0.3l1.8-1.5l-0.4,0.1l3.5-6.4l-4.3-3.7l-6.5,3.9l2.3-2.6l0,0l0.3-0.8l-1.7-2.8l-5.4,1.6
	l0.2-0.2l-0.1-4l2.8-2.9l-0.7-4.9l4.6-4.1l0.7-3.6l-1.2-4.8l6.4-5.7l-4-7l0.7-0.5l-7.3,1.7l11.5-7l-4.2,3l0,1.1l0,0l0,0.1l5.8-2.4
	l0.8-0.8l-1.6-4.6l5.6-4.5l-1.9-6.6l2.1-6.3l-3.8,0.7l-1.2-0.6l-0.1-1.4l0.9-2.2l8.5-3.4l0,0.4l-1.7,1.9l2-0.9l0.5-3l-6.5,0.5
	l29.2-15.6l-0.3-0.6l1.3-1l0.1,1l-1.7,2l-0.1,1.6l0.8-0.1l2.6-4.3l-3.1-1.7l-0.4,0l-4.4,2.1l-0.1,0l-5.3,2.5l3.8-2.9l1.7-0.3l0-0.8
	l0.4-0.3l-0.3-0.9l-0.5,0.2l-0.3-0.7l0,0l0.3,0.7l-0.8-1.7l-28.3,14.2l21.2-13.9l-0.6-0.9l0.1,0l-1.2-2L650,36l-0.5-0.9l-20.4,11.7
	l6.3-9.7l5.1-1.8l-2.4-3L627,48.4l4.1,0.7l-5.5,7.9l0.3,0.1l20.1-8.8l-23.8,16.2l0.1,0.2l-0.3,0.2l0.3,1.4l-1.6,1l0.7,1.4l-0.1,0
	l0.1,0.2l0.1,0l0.7,1.3l5.8-3.9l-4.4,6.2l-6.5,3.5l1.1,1.7l-0.2,0.1l0,0l0.3,0l1,1.6l5.2-5l1.8,1l3.8-3.6l5.7-1.6l-22.4,13.2
	l0.9,1.5l-0.2,0.1l1.5,2.5l0.1-0.2l1,1.6l12-9.9l5.5-1.5L619,89.2l4.4-0.9l-14.6,5.4l0.8,1.7l0,0l2,4.2l0,0l0.4,0.8h0l0,0.1l0,0
	l0.1,0.2l-6.5,4.3l0.5,0.8l-0.1,0.1l2,3.3l0.1-0.1l0.5,0.8l15.7-11.9l3.2,1.7L601.6,115l0.3,3.8l-1.8,0.3l2.7,5.2l-6.4,2.5l1.4,3.5
	l-0.2,0.1l0.7,1.2l-2.1,0.4l1.2,2.1l-0.3,0.1l2.8,4.8l0.2-0.1l1.2,2l0.6-0.4l1.6,2.2l1.3,0.1l0.4,0.6l2.3-1.7l13.8-8.8l-6.8,4.7
	l0.1-0.1l-6.4,4.1l4.1,4.7l16.1-9.7l-6.2,7l-2.7,0.6l-0.9,0.8l3.4,4.4l7,3l0.1,0.2l15.2-9.6l0.6,0.4l-0.2,1.7l-9.2,7.1l2,2.8l14-10
	l2.1,0.3l2.1-0.6l0.1,0.5l-4.5,4.8l-0.2,2.2l0,0l1.6-1.6l-1.2,2l-7.3,3.8l2.7,2.5l0.5-3.1l6.1-1.9l0.1,0.3l-4.9,3.2l0.4,0.8l-0.1,0
	l0.6,1.1l0,0l0.4,0.8l0.4-0.3l0,0l0,0l0.4,0.9l16.6-7.3l-4.8,7.3l-0.4,3.6l0.4,0.1l0,0l0,0l0.7-0.6l0,0l0.1-1l5.5-3.3l0.8-0.1
	l0.8,1.6l8.1-2.3l0.9,0.5l0.2,0.4l1.8,0l-0.8,2l-10.7,3.7l0.9,1.1l-0.2,0.2l-0.1,0l0,0l0.2,1.1l0.9-0.2l1.6,2.2l2.1,1.1l12.8-1.5
	l-2,6.8l4.6,3.2l8.5-1.4l0.2-2.7l-6.8,2.9l-1.8-0.6l10.8-5l-0.3-0.4l0.1,0l-0.3-0.6l1.3-0.9l-0.4-0.8l0,0l-2.1-4l0,0l-0.4-0.8
	l1.2-0.2l4.6-3.3l-0.6-0.9l0.2,0l-1.4-2.1l3.2-1.5l-0.4-0.7l0.7-2.5l3.7-0.3l-2.4-8.6l1.3-0.6l0.8-1.7l0.4-0.9l2.4-1.1l1.2-0.2
	l3.2-10.1l0.9-0.6l1.1-3.3l-0.8-2.7l1.9-2.4l-0.9,0l-0.5-0.9l0.4-0.9l-1.8,0l-0.3,0.7l-0.4-0.1l-0.5,0.8l0.2,1.1l-1.2,0.9l-1.3-0.3
	l0.9-1.2l-2.3-0.6l3.5-2l0.4,0.1l1.4-0.5l0.7-1l1.6,0.3l-0.1,1.8l1.4-0.9l0.1,0.1l-0.9,1.7L723.5,118.3z M723.2,114.8L723.2,114.8
	L723.2,114.8z M723.3,114.8L723.3,114.8L723.3,114.8z M621.5,132.6l-1.1,0.3L621.5,132.6z"/>
<path class="st1" d="M159.1,205.8c-4.6,0-7.9-0.9-9.8-2.6c-2-1.8-2.9-4-2.9-6.8c0-2.9,1-5.1,3-6.9c2-1.8,5.3-2.6,9.8-2.6h3.3v-86.2
	h-3.3c-4.6,0-7.9-0.9-9.8-2.6c-2-1.8-2.9-4.1-2.9-6.9c0-2.8,1-5.1,2.9-6.8c1.9-1.8,5.2-2.7,9.8-2.7h19.5c1.6,0,2.8,1.3,2.8,2.8v5.9
	h0c7.2-4.9,15.6-7.5,24.4-7.5c23.9,0,43.3,19.4,43.3,43.3c0,23.9-19.4,43.3-43.3,43.3c-8.7,0-17.2-2.6-24.4-7.5v25h4.3
	c4.6,0,7.9,0.9,9.8,2.6c2,1.8,2.9,4.1,2.9,6.9c0,2.8-1,5.1-2.9,6.8c-1.9,1.8-5.2,2.6-9.8,2.6L159.1,205.8L159.1,205.8z M205.9,101.8
	c-13.3,0-24.1,10.8-24.1,24.1c0,13.3,10.8,24.1,24.1,24.1s24.1-10.8,24.1-24.1C229.9,112.6,219.1,101.8,205.9,101.8z M306,169
	c-4,0-8-0.7-11.9-2.1c-21.5-7.9-21.8-32.7-21.8-35.5l0-2.3c0-0.2,0-0.3,0-0.5v-28h-6.9c-4.6,0-7.9-0.9-9.8-2.6
	c-2-1.8-2.9-4.1-2.9-6.9c0-2.8,1-5.1,2.9-6.8c1.9-1.8,5.2-2.7,9.8-2.7h6.9V64.2c0-4.6,0.9-7.9,2.7-9.8c1.8-2,4.1-2.9,6.9-2.9
	c2.8,0,5.1,1,6.8,2.9c1.8,1.9,2.7,5.3,2.7,9.8v17.2H316c4.6,0,7.9,0.9,9.8,2.7c2,1.8,2.9,4.1,2.9,6.9c0,2.8-1,5.1-2.9,6.8
	c-1.9,1.8-5.2,2.7-9.8,2.7h-24.6v28.8c0,0.2,0,0.5-0.1,0.7l0.1,2.1c0.1,3.2,1.2,13.9,9.3,16.9c1.8,0.6,3.6,1,5.5,1
	c6.7,0,11.9-4.2,13.3-5.4l0,0c1.2-1.5,2.7-2.7,4.6-3.3c1-0.3,2-0.5,3-0.5c4.1,0,7.7,2.6,9,6.5c0.9,2.6,1,6.7-3.2,10.7
	C327.7,163.1,317.6,169,306,169z M533.5,168.6c-18.7,0-34-11-35.5-25.5c-1.7-16.1,13.7-31.1,34.4-33.3c1.7-0.2,3.5-0.3,5.2-0.3
	c7,0,13.7,1.5,19.5,4.4l0-6.2c0-2.8-1.2-5.2-3.7-7c-2.4-1.8-7.2-2.7-14-2.7c-5.6,0-13,1.1-22,3.3c-3.4,0.8-5.9,1.2-7.8,1.2
	c-2.6,0-4.7-0.9-6.5-2.7c-1.8-1.8-2.7-4.2-2.7-7c0-1.6,0.3-3,0.9-4.2c0.6-1.2,1.5-2.1,2.6-2.8c1.1-0.7,3.4-1.6,7-2.6
	c4.7-1.3,9.5-2.3,14.4-3.1c4.9-0.8,9.3-1.2,13.3-1.2c11.8,0,21.1,2.6,27.6,7.7c6.6,5.2,9.8,12,9.8,21v39.3h3.3
	c4.6,0,7.9,0.9,9.8,2.7c2,1.8,2.9,4.1,2.9,6.9c0,2.8-1,5.1-2.9,6.8c-1.9,1.8-5.2,2.7-9.8,2.7h-19.5c-1.6,0-2.8-1.3-2.8-2.8v-0.8
	c-5.5,3.2-11.8,5.3-18.4,6C536.9,168.5,535.2,168.6,533.5,168.6z M537.5,127c-1.1,0-2.1,0.1-3.2,0.2c-5.9,0.6-11.3,3-14.9,6.4
	c-1.5,1.4-3.9,4.3-3.5,7.5c0.6,5.3,8.7,9.9,17.7,9.9c1.1,0,2.1-0.1,3.2-0.2c5.9-0.6,11.3-3,14.9-6.4c1.5-1.4,3.9-4.3,3.5-7.5
	C554.6,131.6,546.5,127,537.5,127z M409.3,166c-2.4,0-4.3-1.9-4.3-4.3v-9.8c0-1.1,0.4-2.1,1.2-2.9l45.5-48.4h-29.2v1.9
	c0,4.5-0.9,7.8-2.6,9.7c-1.8,2-4.1,2.9-6.9,2.9c-2.9,0-5.1-1-6.9-2.9c-1.8-1.9-2.7-5.2-2.7-9.7l0.1-16.7c0-2.4,1.9-4.3,4.3-4.3H478
	c2.4,0,4.3,1.9,4.3,4.3v9.6c0,1.1-0.4,2.1-1.2,2.9l-45.7,48.6h29.9c0.2-3.5,1.2-6.2,2.9-8c1.8-1.8,3.9-2.7,6.6-2.7
	c2.9,0,5.1,1,6.9,2.9c1.8,1.9,2.7,5.3,2.7,9.8v12.6c0,2.4-1.9,4.3-4.3,4.3H409.3z M375.2,166c-5.3,0-9.6-4.3-9.6-9.6v-55.9h-8.2
	c-4.5,0-7.8-0.9-9.8-2.7c-2-1.8-3-4.1-3-6.9c0-2.8,1-5.1,2.9-6.8c1.9-1.8,5.2-2.7,9.8-2.7h24.5c1.6,0,2.8,1.3,2.8,2.8v72.1
	C384.7,161.7,380.5,166,375.2,166z M112.1,166c-4.6,0-7.9-0.9-9.8-2.6c-2-1.8-2.9-4.1-2.9-6.9c0-2.8,1-5.1,2.9-6.8
	c1.9-1.8,5.2-2.7,9.8-2.7h4.7l-4.6-11.6H65.8l-4.7,11.6h4.7c4.6,0,7.9,0.9,9.8,2.6c2,1.8,2.9,4.1,2.9,6.9c0,2.8-1,5.1-2.9,6.8
	c-1.9,1.8-5.2,2.7-9.8,2.7H40.1c-4.6,0-7.9-0.9-9.8-2.7c-2-1.8-2.9-4.1-2.9-6.9c0-2.8,1-5.2,3.1-7c1.9-1.7,5-2.5,9.2-2.5
	c0.3,0,0.6,0,0.9,0l30-74.6h-8.9c-4.6,0-7.9-0.9-9.8-2.7c-2-1.8-2.9-4.1-2.9-6.9c0-2.9,1-5.2,2.9-6.9c1.9-1.8,5.2-2.7,9.8-2.7
	l35.8,0.1c1.2,0,2.2,0.7,2.6,1.8l37.3,92c4.4,0,7.4,0.5,8.8,1.5c2.9,2,4.3,4.8,4.3,8.1c0,2.8-0.9,5.1-2.9,6.8
	c-1.9,1.8-5.2,2.7-9.8,2.7L112.1,166z M104.3,116.2L88.9,78.4l-15.5,37.8L104.3,116.2L104.3,116.2z M367.5,70.4
	c-1.6,0-2.8-1.3-2.8-2.8V53.1c0-1.6,1.3-2.8,2.8-2.8h11.8c1.6,0,2.8,1.3,2.8,2.8v14.5c0,1.6-1.3,2.8-2.8,2.8L367.5,70.4L367.5,70.4z
	"/>
</svg>
